<?xml version="1.0" encoding="UTF-8"?>
<!DOCTYPE svg PUBLIC "-//W3C//DTD SVG 1.1//EN" "http://www.w3.org/Graphics/SVG/1.1/DTD/svg11.dtd">
<svg xmlns="http://www.w3.org/2000/svg" version="1.1" width="2000px" height="2000px" style="shape-rendering:geometricPrecision; text-rendering:geometricPrecision; image-rendering:optimizeQuality; fill-rule:evenodd; clip-rule:evenodd" xmlns:xlink="http://www.w3.org/1999/xlink">
<g><path style="opacity:1" fill="#08e1cf" d="M 1248.5,1023.5 C 1243.02,1025.32 1238.02,1027.99 1233.5,1031.5C 1231.57,1032.11 1229.9,1033.11 1228.5,1034.5C 1207.33,1046.25 1186.33,1058.25 1165.5,1070.5C 1137.63,1086.26 1109.97,1102.26 1082.5,1118.5C 1058.14,1132.01 1034.14,1146.01 1010.5,1160.5C 1003.65,1163.51 997.149,1167.18 991,1171.5C 983.922,1195.56 976.756,1219.56 969.5,1243.5C 964.464,1261.31 958.964,1278.98 953,1296.5C 949.021,1300.64 945.355,1300.31 942,1295.5C 930.333,1270.17 918.667,1244.83 907,1219.5C 876.745,1237.38 846.245,1254.88 815.5,1272C 811.199,1273.27 808.366,1271.77 807,1267.5C 806.5,1260.51 806.334,1253.51 806.5,1246.5C 806.5,1225.83 806.5,1205.17 806.5,1184.5C 806.5,1179.5 806.5,1174.5 806.5,1169.5C 806.5,1169.17 806.5,1168.83 806.5,1168.5C 807.333,937 807.833,705.334 808,473.5C 809.511,472.436 809.677,471.103 808.5,469.5C 810.158,465.328 812.825,461.828 816.5,459C 975.199,367.32 1133.87,275.653 1292.5,184C 1295.71,182.226 1299.05,180.726 1302.5,179.5C 1304.61,180.034 1306.45,181.034 1308,182.5C 1309.66,448.087 1310,713.754 1309,979.5C 1307.38,984.779 1304.55,989.279 1300.5,993C 1282.94,1002.94 1265.61,1013.11 1248.5,1023.5 Z"/></g>
<g><path style="opacity:1" fill="#14ede5" d="M 472.5,272.5 C 470.139,269.593 467.139,267.593 463.5,266.5C 459.946,267.055 456.613,268.221 453.5,270C 418.248,290.868 382.748,311.368 347,331.5C 342.415,334.543 337.915,337.71 333.5,341C 331.636,343.688 329.636,346.188 327.5,348.5C 311.031,339.431 294.698,330.098 278.5,320.5C 277.817,320.863 277.15,321.196 276.5,321.5C 278.717,316.258 282.05,311.758 286.5,308C 327.576,283.934 368.909,260.267 410.5,237C 423.772,233.591 436.106,235.591 447.5,243C 453.437,246.217 458.937,250.051 464,254.5C 468.192,259.883 471.025,265.883 472.5,272.5 Z"/></g>
<g><path style="opacity:1" fill="#0ae1cf" d="M 472.5,272.5 C 473.249,273.531 473.915,274.698 474.5,276C 473.173,321.561 473.173,367.395 474.5,413.5C 472.756,425.197 467.089,435.03 457.5,443C 419.52,464.968 381.52,486.968 343.5,509C 339.56,511.591 335.227,513.091 330.5,513.5C 331.263,512.732 332.263,512.232 333.5,512C 328.217,511.385 324.717,508.551 323,503.5C 322.333,456.5 322.333,409.5 323,362.5C 323.822,357.537 325.322,352.871 327.5,348.5C 329.636,346.188 331.636,343.688 333.5,341C 337.915,337.71 342.415,334.543 347,331.5C 382.748,311.368 418.248,290.868 453.5,270C 456.613,268.221 459.946,267.055 463.5,266.5C 467.139,267.593 470.139,269.593 472.5,272.5 Z"/></g>
<g><path style="opacity:1" fill="#08cab9" d="M 327.5,348.5 C 325.322,352.871 323.822,357.537 323,362.5C 322.333,409.5 322.333,456.5 323,503.5C 324.717,508.551 328.217,511.385 333.5,512C 332.263,512.232 331.263,512.732 330.5,513.5C 324.178,514.86 317.844,514.694 311.5,513C 297.751,507.905 286.251,499.738 277,488.5C 275.218,485.368 274.052,482.035 273.5,478.5C 273.552,476.097 273.219,473.764 272.5,471.5C 272.5,426.167 272.5,380.833 272.5,335.5C 273.219,333.236 273.552,330.903 273.5,328.5C 273.707,325.759 274.707,323.426 276.5,321.5C 277.15,321.196 277.817,320.863 278.5,320.5C 294.698,330.098 311.031,339.431 327.5,348.5 Z"/></g>
<g><path style="opacity:0.996" fill="#fdfefe" d="M 439.5,324.5 C 438.963,328.856 437.297,332.689 434.5,336C 437.436,335.107 439.936,333.274 442,330.5C 440.813,336.219 438.48,341.553 435,346.5C 433.783,383.415 420.616,415.249 395.5,442C 387.142,449.679 377.476,455.013 366.5,458C 361.833,458.667 357.167,458.667 352.5,458C 363.261,452.073 371.927,443.906 378.5,433.5C 374.827,433.948 371.16,433.448 367.5,432C 365.213,429.93 363.547,427.43 362.5,424.5C 364.833,423 367.167,421.5 369.5,420C 362.947,419.822 358.781,416.655 357,410.5C 356.178,407.883 355.678,405.216 355.5,402.5C 358.32,402.752 360.986,402.252 363.5,401C 358.452,396.706 355.785,391.206 355.5,384.5C 356.194,380.14 357.028,375.806 358,371.5C 359.159,370.434 359.992,370.767 360.5,372.5C 359.167,372.833 359.167,373.167 360.5,373.5C 360.833,374.833 361.167,374.833 361.5,373.5C 372.844,381.039 384.511,381.373 396.5,374.5C 396.044,358.351 401.711,344.851 413.5,334C 418.574,330.154 423.908,329.654 429.5,332.5C 432.583,329.406 435.916,326.739 439.5,324.5 Z"/></g>
<g><path style="opacity:0.776" fill="#bbf2f0" d="M 273.5,328.5 C 273.552,330.903 273.219,333.236 272.5,335.5C 271.903,335.265 271.57,334.765 271.5,334C 271.954,331.97 272.62,330.137 273.5,328.5 Z"/></g>
<g><path style="opacity:1" fill="#13ede5" d="M 672.5,445.5 C 670.866,444.793 669.532,443.627 668.5,442C 664.5,441.333 660.5,441.333 656.5,442C 616.777,465.704 576.777,489.037 536.5,512C 533.09,514.394 530.923,517.561 530,521.5C 529.329,522.252 528.496,522.586 527.5,522.5C 512.095,513.959 496.762,505.125 481.5,496C 479.866,495.506 478.199,495.34 476.5,495.5C 479.153,489.006 483.486,483.84 489.5,480C 528.425,458.066 567.092,435.733 605.5,413C 615.277,409.209 625.277,408.542 635.5,411C 642.833,415 650.167,419 657.5,423C 664.89,428.957 669.89,436.457 672.5,445.5 Z"/></g>
<g><path style="opacity:1" fill="#f4f4f4" d="M 1143.5,700.5 C 1142.65,693.745 1140.48,687.412 1137,681.5C 1130.98,675.717 1123.81,673.55 1115.5,675C 1102.03,677.782 1089.03,681.949 1076.5,687.5C 1076.5,683.5 1076.5,679.5 1076.5,675.5C 1085.53,675.274 1094.2,673.44 1102.5,670C 1131.49,632.532 1140.83,590.699 1130.5,544.5C 1142.59,538.906 1151.09,529.906 1156,517.5C 1156.67,514.833 1156.67,512.167 1156,509.5C 1155.44,508.978 1154.77,508.645 1154,508.5C 1149.48,511.427 1144.81,514.093 1140,516.5C 1142.36,509.385 1144.36,502.052 1146,494.5C 1146.67,487.5 1146.67,480.5 1146,473.5C 1145.68,467.165 1142.51,464.665 1136.5,466C 1121.84,476.667 1106.51,486.333 1090.5,495C 1070.03,502.616 1049.37,509.616 1028.5,516C 1012.06,522.701 1002.73,534.868 1000.5,552.5C 992.339,550.246 986.339,552.913 982.5,560.5C 986.833,561.833 991.167,563.167 995.5,564.5C 982.796,572.753 977.962,584.42 981,599.5C 982.347,605.095 983.18,610.762 983.5,616.5C 971.561,632.057 973.228,646.223 988.5,659C 996.741,664.771 1005.07,664.938 1013.5,659.5C 1014.55,679.488 1015.22,699.488 1015.5,719.5C 997.654,730.839 980.488,743.173 964,756.5C 961.746,760.007 959.746,763.673 958,767.5C 956.12,775.834 954.286,784.167 952.5,792.5C 934.755,782.233 922.588,767.233 916,747.5C 905.783,714.149 904.783,680.483 913,646.5C 932.134,564.992 974.301,498.492 1039.5,447C 1061.33,430.924 1085.66,420.591 1112.5,416C 1158.61,412.776 1188.45,433.276 1202,477.5C 1209.97,513.709 1208.97,549.709 1199,585.5C 1187.39,627.388 1168.89,665.721 1143.5,700.5 Z"/></g>
<g><path style="opacity:1" fill="#12e1cf" d="M 672.5,445.5 C 673.185,447.414 673.685,449.414 674,451.5C 674.667,497.167 674.667,542.833 674,588.5C 671.689,602.28 664.523,612.78 652.5,620C 613.148,642.921 573.648,665.421 534,687.5C 533.601,687.272 533.435,686.938 533.5,686.5C 531.219,685.661 528.885,684.661 526.5,683.5C 525.542,681.376 524.375,679.376 523,677.5C 522.333,630.167 522.333,582.833 523,535.5C 524.478,531.199 525.978,526.866 527.5,522.5C 528.496,522.586 529.329,522.252 530,521.5C 530.923,517.561 533.09,514.394 536.5,512C 576.777,489.037 616.777,465.704 656.5,442C 660.5,441.333 664.5,441.333 668.5,442C 669.532,443.627 670.866,444.793 672.5,445.5 Z M 617.5,533.5 C 618.461,535.265 618.795,537.265 618.5,539.5C 617.685,540.429 616.852,541.429 616,542.5C 615.833,539.667 614.333,538.167 611.5,538C 612.056,537.617 612.389,537.117 612.5,536.5C 614.332,535.752 615.999,534.752 617.5,533.5 Z"/></g>
<g><path style="opacity:0.996" fill="#ececec" d="M 1546.5,449.5 C 1558.4,450.561 1565.9,456.894 1569,468.5C 1569.67,472.5 1570.33,476.5 1571,480.5C 1577.97,470.858 1587.14,464.358 1598.5,461C 1604.95,460.04 1610.11,462.207 1614,467.5C 1616.43,472.236 1618.1,477.236 1619,482.5C 1629.26,476.286 1639.76,470.453 1650.5,465C 1661.56,463.22 1666.9,468.053 1666.5,479.5C 1665.04,494.785 1657.71,506.285 1644.5,514C 1585.83,547.667 1527.17,581.333 1468.5,615C 1460.96,617.148 1455.8,614.648 1453,607.5C 1451.3,591.599 1456.8,578.766 1469.5,569C 1472.99,566.089 1476.66,563.422 1480.5,561C 1483.07,558.933 1485.07,556.433 1486.5,553.5C 1480.39,516.662 1491.39,486.162 1519.5,462C 1527.6,455.612 1536.6,451.446 1546.5,449.5 Z"/></g>
<g><path style="opacity:1" fill="#1b2e35" d="M 1130.5,544.5 C 1129.21,539.263 1126.88,534.596 1123.5,530.5C 1107.72,541.378 1090.39,548.878 1071.5,553C 1058.89,555.923 1046.22,558.589 1033.5,561C 1030.16,564.521 1027.99,568.688 1027,573.5C 1024.17,588.126 1021.5,602.792 1019,617.5C 1018.2,620.244 1017.2,622.911 1016,625.5C 1015.16,627.007 1014,627.507 1012.5,627C 1008.01,621.503 1002.68,617.169 996.5,614C 991.791,613.123 987.457,613.956 983.5,616.5C 983.18,610.762 982.347,605.095 981,599.5C 977.962,584.42 982.796,572.753 995.5,564.5C 991.167,563.167 986.833,561.833 982.5,560.5C 986.339,552.913 992.339,550.246 1000.5,552.5C 1002.73,534.868 1012.06,522.701 1028.5,516C 1049.37,509.616 1070.03,502.616 1090.5,495C 1106.51,486.333 1121.84,476.667 1136.5,466C 1142.51,464.665 1145.68,467.165 1146,473.5C 1146.67,480.5 1146.67,487.5 1146,494.5C 1144.36,502.052 1142.36,509.385 1140,516.5C 1144.81,514.093 1149.48,511.427 1154,508.5C 1154.77,508.645 1155.44,508.978 1156,509.5C 1156.67,512.167 1156.67,514.833 1156,517.5C 1151.09,529.906 1142.59,538.906 1130.5,544.5 Z"/></g>
<g><path style="opacity:0.655" fill="#aff2ed" d="M 272.5,471.5 C 273.219,473.764 273.552,476.097 273.5,478.5C 272.62,476.863 271.954,475.03 271.5,473C 271.57,472.235 271.903,471.735 272.5,471.5 Z"/></g>
<g><path style="opacity:0.816" fill="#2eefea" d="M 808.5,469.5 C 809.677,471.103 809.511,472.436 808,473.5C 807.833,705.334 807.333,937 806.5,1168.5C 806.5,1137.17 806.5,1105.83 806.5,1074.5C 806.5,1072.83 806.5,1071.17 806.5,1069.5C 806.5,1062.83 806.5,1056.17 806.5,1049.5C 806.832,858.46 806.499,667.46 805.5,476.5C 806.058,473.873 807.058,471.54 808.5,469.5 Z"/></g>
<g><path style="opacity:0.968" fill="#fdfefe" d="M 612.5,536.5 C 612.389,537.117 612.056,537.617 611.5,538C 614.333,538.167 615.833,539.667 616,542.5C 616.852,541.429 617.685,540.429 618.5,539.5C 618.825,544.599 618.325,549.599 617,554.5C 613.25,556.959 609.417,559.292 605.5,561.5C 604.833,583.167 604.167,604.833 603.5,626.5C 597.585,629.707 591.752,633.04 586,636.5C 585.833,615.492 585.333,594.492 584.5,573.5C 581.833,575.167 579.167,576.833 576.5,578.5C 575.167,571.167 575.167,563.833 576.5,556.5C 579.58,555.211 582.414,553.545 585,551.5C 585.176,541.791 585.842,532.124 587,522.5C 588.827,515.341 592.327,509.174 597.5,504C 604.246,498.875 611.412,494.375 619,490.5C 619.667,497.833 619.667,505.167 619,512.5C 614.318,515.007 609.985,518.007 606,521.5C 604.419,527.723 604.085,534.056 605,540.5C 607.157,538.505 609.657,537.172 612.5,536.5 Z"/></g>
<g><path style="opacity:1" fill="#06cab9" d="M 476.5,495.5 C 478.199,495.34 479.866,495.506 481.5,496C 496.762,505.125 512.095,513.959 527.5,522.5C 525.978,526.866 524.478,531.199 523,535.5C 522.333,582.833 522.333,630.167 523,677.5C 524.375,679.376 525.542,681.376 526.5,683.5C 528.885,684.661 531.219,685.661 533.5,686.5C 521.902,689.037 510.902,687.537 500.5,682C 495.167,678.667 489.833,675.333 484.5,672C 478.094,665.11 473.761,657.11 471.5,648C 472.497,602.239 472.83,556.405 472.5,510.5C 472.891,507.299 473.891,504.299 475.5,501.5C 475.137,500.817 474.804,500.15 474.5,499.5C 474.66,497.847 475.326,496.514 476.5,495.5 Z"/></g>
<g><path style="opacity:0.776" fill="#9ceae3" d="M 474.5,499.5 C 474.804,500.15 475.137,500.817 475.5,501.5C 473.891,504.299 472.891,507.299 472.5,510.5C 471.852,509.021 471.519,507.521 471.5,506C 472.132,503.585 473.132,501.418 474.5,499.5 Z"/></g>
<g><path style="opacity:1" fill="#faaaa9" d="M 1130.5,544.5 C 1140.83,590.699 1131.49,632.532 1102.5,670C 1094.2,673.44 1085.53,675.274 1076.5,675.5C 1076.5,679.5 1076.5,683.5 1076.5,687.5C 1085.89,698.715 1087.72,711.048 1082,724.5C 1076.78,731.86 1069.62,735.693 1060.5,736C 1042.1,739.261 1027.1,733.761 1015.5,719.5C 1015.22,699.488 1014.55,679.488 1013.5,659.5C 1005.07,664.938 996.741,664.771 988.5,659C 973.228,646.223 971.561,632.057 983.5,616.5C 987.457,613.956 991.791,613.123 996.5,614C 1002.68,617.169 1008.01,621.503 1012.5,627C 1014,627.507 1015.16,627.007 1016,625.5C 1017.2,622.911 1018.2,620.244 1019,617.5C 1021.5,602.792 1024.17,588.126 1027,573.5C 1027.99,568.688 1030.16,564.521 1033.5,561C 1046.22,558.589 1058.89,555.923 1071.5,553C 1090.39,548.878 1107.72,541.378 1123.5,530.5C 1126.88,534.596 1129.21,539.263 1130.5,544.5 Z"/></g>
<g><path style="opacity:0.369" fill="#c9f8f9" d="M 617.5,533.5 C 617.56,532.957 617.893,532.624 618.5,532.5C 619.797,534.973 619.797,537.307 618.5,539.5C 618.795,537.265 618.461,535.265 617.5,533.5 Z"/></g>
<g><path style="opacity:1" fill="#223137" d="M 1115.5,556.5 C 1122.87,555.529 1125.54,558.529 1123.5,565.5C 1119.41,565.566 1115.57,564.233 1112,561.5C 1112.11,559.203 1113.28,557.536 1115.5,556.5 Z"/></g>
<g><path style="opacity:1" fill="#213137" d="M 1055.5,575.5 C 1058.23,575.264 1060.56,576.097 1062.5,578C 1058.31,581.69 1053.98,585.19 1049.5,588.5C 1048,582.506 1050,578.173 1055.5,575.5 Z"/></g>
<g><path style="opacity:1" fill="#1f2f35" d="M 1111.5,579.5 C 1118.93,578.76 1121.1,581.76 1118,588.5C 1110.48,594.959 1107.15,593.293 1108,583.5C 1109.38,582.295 1110.54,580.962 1111.5,579.5 Z"/></g>
<g><path style="opacity:1" fill="#f99393" d="M 1088.5,587.5 C 1096.28,594.519 1103.28,602.353 1109.5,611C 1103.39,615.051 1097.06,618.551 1090.5,621.5C 1089.69,610.179 1089.02,598.845 1088.5,587.5 Z"/></g>
<g><path style="opacity:1" fill="#1f3036" d="M 1061.5,594.5 C 1068.52,594.688 1070.35,598.021 1067,604.5C 1064.79,607.29 1061.96,608.123 1058.5,607C 1055.73,602.009 1056.73,597.842 1061.5,594.5 Z"/></g>
<g><path style="opacity:1" fill="#f89393" d="M 1067.5,641.5 C 1071.51,641.334 1075.51,641.501 1079.5,642C 1080.31,642.308 1080.97,642.808 1081.5,643.5C 1078.16,649.703 1073.82,650.703 1068.5,646.5C 1067.69,644.929 1067.36,643.262 1067.5,641.5 Z"/></g>
<g><path style="opacity:1" fill="#1a2e35" d="M 1143.5,700.5 C 1117.15,739.68 1082.82,769.847 1040.5,791C 1017.68,801.306 994.017,804.306 969.5,800C 963.274,798.545 957.608,796.045 952.5,792.5C 954.286,784.167 956.12,775.834 958,767.5C 959.746,763.673 961.746,760.007 964,756.5C 980.488,743.173 997.654,730.839 1015.5,719.5C 1027.1,733.761 1042.1,739.261 1060.5,736C 1069.62,735.693 1076.78,731.86 1082,724.5C 1087.72,711.048 1085.89,698.715 1076.5,687.5C 1089.03,681.949 1102.03,677.782 1115.5,675C 1123.81,673.55 1130.98,675.717 1137,681.5C 1140.48,687.412 1142.65,693.745 1143.5,700.5 Z"/></g>
<g><path style="opacity:1" fill="#f99393" d="M 1020.5,664.5 C 1025.13,670.93 1031.46,674.763 1039.5,676C 1051.21,676.812 1062.88,676.645 1074.5,675.5C 1075.48,678.428 1075.82,681.428 1075.5,684.5C 1063.5,684.667 1051.5,684.5 1039.5,684C 1029.02,681.529 1022.68,675.029 1020.5,664.5 Z"/></g>
<g><path style="opacity:1" fill="#12ede5" d="M 472.5,754.5 C 471.5,754.5 470.5,754.5 469.5,754.5C 469.863,752.089 468.863,750.589 466.5,750C 463.072,749.299 459.738,749.632 456.5,751C 416.578,774.3 376.578,797.634 336.5,821C 332.836,824.146 329.836,827.646 327.5,831.5C 311.799,821.831 295.799,812.497 279.5,803.5C 278.614,802.675 278.281,801.675 278.5,800.5C 281.623,795.543 285.623,791.376 290.5,788C 328.33,766.586 365.997,744.919 403.5,723C 413.782,717.577 424.448,716.577 435.5,720C 446.564,724.278 456.397,730.444 465,738.5C 468.851,743.202 471.351,748.535 472.5,754.5 Z"/></g>
<g><path style="opacity:1" fill="#0ce1cf" d="M 472.5,754.5 C 473.845,757.051 474.511,759.884 474.5,763C 473.168,808.61 473.168,853.943 474.5,899C 471.396,910.545 465.063,919.879 455.5,927C 415.735,949.386 376.068,972.053 336.5,995C 334.899,995.273 333.399,995.773 332,996.5C 331.601,996.272 331.435,995.938 331.5,995.5C 327.095,993.588 324.261,990.255 323,985.5C 322.333,938.5 322.333,891.5 323,844.5C 323.96,839.928 325.46,835.595 327.5,831.5C 329.836,827.646 332.836,824.146 336.5,821C 376.578,797.634 416.578,774.3 456.5,751C 459.738,749.632 463.072,749.299 466.5,750C 468.863,750.589 469.863,752.089 469.5,754.5C 470.5,754.5 471.5,754.5 472.5,754.5 Z"/></g>
<g><path style="opacity:1" fill="#fdfefe" d="M 1247.5,779.5 C 1254.92,779.084 1258.58,782.584 1258.5,790C 1257.76,798.817 1254.09,806.151 1247.5,812C 1189.33,845.919 1131,879.586 1072.5,913C 1061.47,914.628 1057.47,909.962 1060.5,899C 1062.3,892.394 1065.63,886.727 1070.5,882C 1129.56,847.807 1188.56,813.64 1247.5,779.5 Z"/></g>
<g><path style="opacity:0.989" fill="#f9fdfd" d="M 423.5,799.5 C 434.167,798.762 440,803.762 441,814.5C 443,835.833 443,857.167 441,878.5C 438.949,895.446 431.116,908.946 417.5,919C 403.995,926.92 390.328,934.587 376.5,942C 363.732,946.529 356.565,942.029 355,928.5C 354.333,907.167 354.333,885.833 355,864.5C 357.377,848.906 364.543,836.073 376.5,826C 391.613,816.112 407.28,807.279 423.5,799.5 Z"/></g>
<g><path style="opacity:1" fill="#08cab9" d="M 278.5,800.5 C 278.281,801.675 278.614,802.675 279.5,803.5C 295.799,812.497 311.799,821.831 327.5,831.5C 325.46,835.595 323.96,839.928 323,844.5C 322.333,891.5 322.333,938.5 323,985.5C 324.261,990.255 327.095,993.588 331.5,995.5C 322.787,998.103 313.787,997.27 304.5,993C 295.704,988.854 287.87,983.354 281,976.5C 276.671,970.17 273.505,963.336 271.5,956C 272.475,911.396 272.808,866.563 272.5,821.5C 273.275,817.186 273.941,812.853 274.5,808.5C 275.304,805.558 276.638,802.891 278.5,800.5 Z"/></g>
<g><path style="opacity:1" fill="#99ebe4" d="M 274.5,808.5 C 273.941,812.853 273.275,817.186 272.5,821.5C 271.373,816.977 272.04,812.644 274.5,808.5 Z"/></g>
<g><path style="opacity:1" fill="#05e1cf" d="M 422.5,810.5 C 428.273,810.769 431.773,813.769 433,819.5C 434.461,836.476 434.794,853.476 434,870.5C 435.308,886.708 429.475,899.542 416.5,909C 402.995,916.92 389.328,924.587 375.5,932C 368.619,933.302 364.452,930.468 363,923.5C 362.705,913.155 362.205,902.821 361.5,892.5C 362.214,881.512 362.714,870.512 363,859.5C 364.907,849.85 369.741,842.017 377.5,836C 392.174,826.803 407.174,818.303 422.5,810.5 Z"/></g>
<g><path style="opacity:1" fill="#fbfdfc" d="M 421.5,819.5 C 425.24,818.741 426.907,820.241 426.5,824C 426.721,829.03 424.554,832.53 420,834.5C 417.472,833.803 416.306,832.136 416.5,829.5C 416.653,825.352 418.32,822.019 421.5,819.5 Z"/></g>
<g><path style="opacity:1" fill="#fafdfd" d="M 405.5,838.5 C 412.222,838.783 416.722,842.116 419,848.5C 422.529,868.247 417.029,885.08 402.5,899C 385.075,908.949 376.075,903.782 375.5,883.5C 376.435,867.129 383.102,853.629 395.5,843C 398.815,841.17 402.149,839.67 405.5,838.5 Z"/></g>
<g><path style="opacity:1" fill="#07e1cf" d="M 400.5,850.5 C 406.308,849.652 410.142,851.985 412,857.5C 413.603,868.356 410.936,878.023 404,886.5C 400.802,889.863 396.968,892.196 392.5,893.5C 389.345,892.85 386.845,891.183 385,888.5C 381.624,872.263 386.791,859.596 400.5,850.5 Z"/></g>
<g><path style="opacity:1" fill="#fdfefe" d="M 1218.5,876.5 C 1224.54,877.374 1227.54,880.874 1227.5,887C 1226.67,896.333 1222.67,904 1215.5,910C 1167.83,937.667 1120.17,965.333 1072.5,993C 1063.16,997.261 1058.16,994.428 1057.5,984.5C 1058.56,974.877 1062.9,967.043 1070.5,961C 1119.81,932.521 1169.14,904.354 1218.5,876.5 Z"/></g>
<g><path style="opacity:1" fill="#fdfefe" d="M 978.5,880.5 C 1000.95,879.136 1016.45,888.803 1025,909.5C 1033.94,938.586 1033.6,967.586 1024,996.5C 1018.9,1010.25 1010.74,1021.75 999.5,1031C 993.436,1035.7 986.769,1037.03 979.5,1035C 976.385,1031.06 974.552,1026.56 974,1021.5C 968.566,1035.59 960.066,1047.42 948.5,1057C 937.964,1065.73 926.297,1067.73 913.5,1063C 906.688,1057.89 902.522,1051.06 901,1042.5C 897.122,1011.81 904.455,984.143 923,959.5C 930.218,950.937 939.052,944.77 949.5,941C 956.574,939.535 963.074,940.701 969,944.5C 969.07,935.524 972.903,928.69 980.5,924C 983.099,923.231 985.599,923.398 988,924.5C 989.316,951.747 989.983,979.08 990,1006.5C 989.719,1013.9 992.885,1016.06 999.5,1013C 1005.86,1006.78 1010.03,999.275 1012,990.5C 1016.88,971.439 1017.21,952.439 1013,933.5C 1005.93,907.551 989.432,898.051 963.5,905C 942.866,913.3 926.033,926.467 913,944.5C 887.871,978.008 877.205,1015.67 881,1057.5C 887.298,1088.56 905.465,1099.39 935.5,1090C 945.546,1085.95 954.546,1080.28 962.5,1073C 967.935,1066.81 973.602,1060.81 979.5,1055C 984.726,1053.14 987.392,1054.98 987.5,1060.5C 986.817,1066.73 984.317,1072.06 980,1076.5C 966.97,1092.21 951.136,1104.05 932.5,1112C 893.451,1122.71 870.951,1107.87 865,1067.5C 861.276,1004.32 882.109,950.825 927.5,907C 942.351,893.909 959.351,885.076 978.5,880.5 Z"/></g>
<g><path style="opacity:1" fill="#13cbba" d="M 1633.5,1046.5 C 1634.27,1058.15 1634.6,1069.82 1634.5,1081.5C 1634.5,1082.17 1634.5,1082.83 1634.5,1083.5C 1633.83,1086.03 1633.17,1088.69 1632.5,1091.5C 1616.34,1105.15 1603.01,1121.15 1592.5,1139.5C 1592.5,1138.5 1592.5,1137.5 1592.5,1136.5C 1592.83,1134.5 1593.17,1132.5 1593.5,1130.5C 1594.46,1128.74 1594.79,1126.74 1594.5,1124.5C 1594.5,1123.17 1594.5,1121.83 1594.5,1120.5C 1595.17,1120.5 1595.5,1120.17 1595.5,1119.5C 1595.5,1119.17 1595.5,1118.83 1595.5,1118.5C 1597.12,1113.08 1597.78,1107.42 1597.5,1101.5C 1597.5,1101.17 1597.5,1100.83 1597.5,1100.5C 1597.5,1099.17 1597.5,1097.83 1597.5,1096.5C 1597.63,1092.15 1597.3,1087.82 1596.5,1083.5C 1596.81,1086.71 1596.48,1089.71 1595.5,1092.5C 1594.51,1097.31 1594.18,1102.31 1594.5,1107.5C 1594.5,1108.17 1594.5,1108.83 1594.5,1109.5C 1593.34,1114.63 1592.67,1119.97 1592.5,1125.5C 1591.21,1129.27 1590.54,1133.27 1590.5,1137.5C 1589.47,1139.96 1588.8,1142.63 1588.5,1145.5C 1579.09,1163.88 1571.09,1183.05 1564.5,1203C 1565.66,1204.26 1565.66,1205.43 1564.5,1206.5C 1561.13,1204.49 1557.8,1202.49 1554.5,1200.5C 1555.19,1195.2 1555.53,1189.86 1555.5,1184.5C 1556.66,1174.01 1556.83,1163.34 1556,1152.5C 1555.7,1144.56 1554.53,1136.9 1552.5,1129.5C 1550.11,1114.13 1546.11,1098.96 1540.5,1084C 1541.46,1082.85 1541.12,1081.85 1539.5,1081C 1539.5,1079.67 1539.5,1078.33 1539.5,1077C 1526.01,1050.24 1517.68,1022.24 1514.5,993C 1513.62,979.924 1517.12,967.758 1525,956.5C 1539.79,943.212 1555.96,941.379 1573.5,951C 1608.37,973.586 1628.37,1005.42 1633.5,1046.5 Z M 1562.5,978.5 C 1559.57,975.062 1556.4,971.729 1553,968.5C 1552.33,967.833 1552.33,967.167 1553,966.5C 1557.14,969.795 1560.3,973.795 1562.5,978.5 Z M 1562.5,978.5 C 1563.83,979.167 1564.83,980.167 1565.5,981.5C 1565.57,981.938 1565.4,982.272 1565,982.5C 1564.29,981.619 1563.46,980.953 1562.5,980.5C 1562.5,979.833 1562.5,979.167 1562.5,978.5 Z M 1567.5,984.5 C 1568.17,985.5 1568.83,986.5 1569.5,987.5C 1569.57,987.938 1569.4,988.272 1569,988.5C 1568.29,987.619 1567.46,986.953 1566.5,986.5C 1566.33,985.508 1566.66,984.842 1567.5,984.5 Z M 1572.5,994.5 C 1573.91,994.973 1574.57,995.973 1574.5,997.5C 1573.83,997.167 1573.17,996.833 1572.5,996.5C 1572.5,995.833 1572.5,995.167 1572.5,994.5 Z M 1595.5,1059.5 C 1595.26,1062.61 1595.6,1065.61 1596.5,1068.5C 1595.83,1068.5 1595.17,1068.5 1594.5,1068.5C 1594.5,1068.17 1594.5,1067.83 1594.5,1067.5C 1594.19,1064.61 1594.53,1061.95 1595.5,1059.5 Z M 1596.5,1069.5 C 1597.02,1074.07 1597.02,1078.74 1596.5,1083.5C 1595.83,1083.5 1595.5,1083.17 1595.5,1082.5C 1595.18,1077.97 1595.52,1073.63 1596.5,1069.5 Z M 1596.5,1083.5 C 1597.3,1087.82 1597.63,1092.15 1597.5,1096.5C 1595.82,1095.82 1595.16,1094.48 1595.5,1092.5C 1596.48,1089.71 1596.81,1086.71 1596.5,1083.5 Z M 1597.5,1100.5 C 1597.5,1100.83 1597.5,1101.17 1597.5,1101.5C 1595.99,1106.93 1595.32,1112.6 1595.5,1118.5C 1594.52,1115.71 1594.19,1112.71 1594.5,1109.5C 1594.5,1108.83 1594.5,1108.17 1594.5,1107.5C 1595.32,1104.69 1595.82,1101.69 1596,1098.5C 1596.28,1099.42 1596.78,1100.08 1597.5,1100.5 Z M 1592.5,1125.5 C 1593.45,1126.92 1593.78,1128.59 1593.5,1130.5C 1593.17,1132.5 1592.83,1134.5 1592.5,1136.5C 1592.06,1133.04 1592.06,1129.37 1592.5,1125.5 Z"/></g>
<g><path style="opacity:1" fill="#04e1cf" d="M 949.5,964.5 C 960.338,963.002 966.505,967.668 968,978.5C 970.587,1000.02 964.087,1018.19 948.5,1033C 934.686,1042.17 925.852,1038.67 922,1022.5C 919.201,1001.23 925.701,983.392 941.5,969C 944.099,967.205 946.766,965.705 949.5,964.5 Z"/></g>
<g><path style="opacity:0.011" fill="#eafbfb" d="M 1562.5,980.5 C 1563.46,980.953 1564.29,981.619 1565,982.5C 1565.4,982.272 1565.57,981.938 1565.5,981.5C 1566.91,981.973 1567.57,982.973 1567.5,984.5C 1566.66,984.842 1566.33,985.508 1566.5,986.5C 1564.78,984.777 1563.45,982.777 1562.5,980.5 Z"/></g>
<g><path style="opacity:1" fill="#b2ede6" d="M 1566.5,986.5 C 1567.46,986.953 1568.29,987.619 1569,988.5C 1569.4,988.272 1569.57,987.938 1569.5,987.5C 1570.34,987.842 1570.67,988.508 1570.5,989.5C 1569.17,989.833 1569.17,990.167 1570.5,990.5C 1570.33,991.492 1570.66,992.158 1571.5,992.5C 1571.33,993.492 1571.66,994.158 1572.5,994.5C 1572.5,995.167 1572.5,995.833 1572.5,996.5C 1571.85,996.196 1571.18,995.863 1570.5,995.5C 1569.42,992.335 1568.08,989.335 1566.5,986.5 Z"/></g>
<g><path style="opacity:0.014" fill="#ebfbfb" d="M 1572.5,996.5 C 1573.17,996.833 1573.83,997.167 1574.5,997.5C 1574.83,1000.17 1575.17,1000.17 1575.5,997.5C 1577.34,999.849 1578.67,1002.52 1579.5,1005.5C 1580.4,1006.21 1580.74,1007.21 1580.5,1008.5C 1579.66,1008.84 1579.33,1009.51 1579.5,1010.5C 1577.41,1007.91 1576.07,1004.91 1575.5,1001.5C 1573.75,1000.34 1572.75,998.674 1572.5,996.5 Z"/></g>
<g><path style="opacity:0.015" fill="#f7fdfd" d="M 1581.5,1010.5 C 1582.93,1011.78 1583.6,1013.45 1583.5,1015.5C 1582.66,1015.84 1582.33,1016.51 1582.5,1017.5C 1581.46,1016.07 1580.8,1014.4 1580.5,1012.5C 1581.34,1012.16 1581.67,1011.49 1581.5,1010.5 Z"/></g>
<g><path style="opacity:0.016" fill="#f7fdfe" d="M 1583.5,1015.5 C 1584.93,1016.78 1585.6,1018.45 1585.5,1020.5C 1584.66,1020.84 1584.33,1021.51 1584.5,1022.5C 1583.07,1021.22 1582.4,1019.55 1582.5,1017.5C 1583.34,1017.16 1583.67,1016.49 1583.5,1015.5 Z"/></g>
<g><path style="opacity:0.012" fill="#f8fefd" d="M 1585.5,1020.5 C 1586.4,1021.21 1586.74,1022.21 1586.5,1023.5C 1585.66,1023.84 1585.33,1024.51 1585.5,1025.5C 1584.6,1024.79 1584.26,1023.79 1584.5,1022.5C 1585.34,1022.16 1585.67,1021.49 1585.5,1020.5 Z"/></g>
<g><path style="opacity:0.999" fill="#6d7e85" d="M 1256.5,1028.5 C 1260.33,1030.25 1264,1032.25 1267.5,1034.5C 1264.31,1035.04 1261.81,1034.04 1260,1031.5C 1259.59,1031.96 1259.09,1032.29 1258.5,1032.5C 1257.64,1031.23 1256.97,1029.9 1256.5,1028.5 Z"/></g>
<g><path style="opacity:0.019" fill="#f0fcfc" d="M 1587.5,1026.5 C 1588.4,1027.21 1588.74,1028.21 1588.5,1029.5C 1589.4,1030.21 1589.74,1031.21 1589.5,1032.5C 1590.61,1034.6 1591.28,1036.93 1591.5,1039.5C 1592.91,1042.22 1593.58,1045.22 1593.5,1048.5C 1592.57,1049.57 1592.23,1050.9 1592.5,1052.5C 1590.21,1044.68 1588.21,1036.68 1586.5,1028.5C 1587.34,1028.16 1587.67,1027.49 1587.5,1026.5 Z"/></g>
<g><path style="opacity:1" fill="#596c73" d="M 1228.5,1034.5 C 1315.47,1084.65 1402.47,1134.82 1489.5,1185C 1492.17,1187.33 1492.17,1189.67 1489.5,1192C 1469.98,1202.93 1450.64,1214.09 1431.5,1225.5C 1342.83,1173.83 1254.17,1122.17 1165.5,1070.5C 1186.33,1058.25 1207.33,1046.25 1228.5,1034.5 Z"/></g>
<g><path style="opacity:1" fill="#586d73" d="M 1268.5,1035.5 C 1275.33,1038.41 1281.67,1042.08 1287.5,1046.5C 1284.45,1047.41 1281.95,1046.41 1280,1043.5C 1278.44,1044.35 1277.44,1043.68 1277,1041.5C 1276.67,1041.83 1276.33,1042.17 1276,1042.5C 1274.04,1040.03 1271.71,1038.03 1269,1036.5C 1268.67,1036.83 1268.33,1037.17 1268,1037.5C 1267.31,1036.56 1267.47,1035.9 1268.5,1035.5 Z"/></g>
<g><path style="opacity:0.999" fill="#ececec" d="M 806.5,1049.5 C 806.5,1056.17 806.5,1062.83 806.5,1069.5C 697.863,1131.48 589.529,1193.98 481.5,1257C 478.633,1261.59 478.966,1265.92 482.5,1270C 507.669,1284.36 532.669,1298.86 557.5,1313.5C 521.416,1333.04 485.749,1353.38 450.5,1374.5C 454.061,1361.68 452.894,1349.34 447,1337.5C 442.892,1332.79 438.225,1328.79 433,1325.5C 430.191,1317.15 429.691,1308.65 431.5,1300C 432.458,1290.41 429.791,1282.07 423.5,1275C 421.5,1274 419.5,1273 417.5,1272C 411.116,1271.76 404.782,1271.09 398.5,1270C 395.452,1269.39 392.952,1267.89 391,1265.5C 387.693,1259.92 385.359,1253.92 384,1247.5C 382.068,1237.59 380.735,1227.59 380,1217.5C 375.642,1205.91 368.142,1203.41 357.5,1210C 342.882,1222.05 334.049,1237.55 331,1256.5C 328.995,1271.39 330.995,1285.72 337,1299.5C 343.161,1313.16 349.328,1326.82 355.5,1340.5C 355.451,1344.1 353.784,1346.6 350.5,1348C 322.348,1346.86 310.848,1360.03 316,1387.5C 320.171,1397.68 326.671,1406.18 335.5,1413C 359.103,1430.82 385.437,1442.99 414.5,1449.5C 414.5,1449.83 414.5,1450.17 414.5,1450.5C 404.21,1457.07 403.877,1464.24 413.5,1472C 565.096,1558.8 716.429,1646.13 867.5,1734C 879.205,1740.94 891.538,1742.27 904.5,1738C 1144.44,1599.69 1384.44,1461.36 1624.5,1323C 1631.67,1317.71 1632.34,1311.87 1626.5,1305.5C 1632.36,1296.22 1634.69,1286.05 1633.5,1275C 1635.21,1262.98 1632.21,1252.48 1624.5,1243.5C 1624.17,1242.83 1623.83,1242.17 1623.5,1241.5C 1645.15,1239.28 1666.82,1237.11 1688.5,1235C 1699.49,1233.28 1710.16,1230.45 1720.5,1226.5C 1725.68,1227.8 1730.35,1230.3 1734.5,1234C 1767.6,1260.75 1794.44,1292.59 1815,1329.5C 1851.6,1401.55 1848.6,1471.88 1806,1540.5C 1776.83,1583 1741,1618.83 1698.5,1648C 1639.8,1687.52 1576.8,1718.85 1509.5,1742C 1378.12,1786.29 1243.12,1811.29 1104.5,1817C 956.551,1824.46 810.217,1812.46 665.5,1781C 574.273,1761.21 487.273,1729.88 404.5,1687C 351.851,1659.74 305.017,1624.57 264,1581.5C 240.429,1555.71 222.429,1526.38 210,1493.5C 192.713,1442.58 195.047,1392.58 217,1343.5C 239.644,1298.51 270.811,1260.34 310.5,1229C 356.635,1193.25 406.635,1163.58 460.5,1140C 571.51,1092.92 686.843,1062.75 806.5,1049.5 Z"/></g>
<g><path style="opacity:1" fill="#18e1cf" d="M 1742.5,1188.5 C 1742.5,1193.17 1742.5,1197.83 1742.5,1202.5C 1741.32,1207.86 1738.82,1212.53 1735,1216.5C 1730.72,1220.72 1725.88,1224.05 1720.5,1226.5C 1710.16,1230.45 1699.49,1233.28 1688.5,1235C 1666.82,1237.11 1645.15,1239.28 1623.5,1241.5C 1611.3,1233.57 1598.97,1225.9 1586.5,1218.5C 1587.91,1214.68 1589.58,1211.02 1591.5,1207.5C 1592.61,1205.22 1593.94,1203.05 1595.5,1201C 1597.63,1200.46 1599.63,1199.62 1601.5,1198.5C 1600.5,1197.83 1599.5,1197.17 1598.5,1196.5C 1602.1,1191.61 1605.44,1186.61 1608.5,1181.5C 1607.5,1181.41 1606.67,1181.75 1606,1182.5C 1600.81,1190.23 1595.64,1197.9 1590.5,1205.5C 1587.68,1209.14 1585.34,1213.14 1583.5,1217.5C 1577,1214.09 1570.67,1210.42 1564.5,1206.5C 1565.66,1205.43 1565.66,1204.26 1564.5,1203C 1571.09,1183.05 1579.09,1163.88 1588.5,1145.5C 1589.74,1144.04 1590.74,1142.37 1591.5,1140.5C 1592.17,1140.5 1592.5,1140.17 1592.5,1139.5C 1603.01,1121.15 1616.34,1105.15 1632.5,1091.5C 1633.17,1088.69 1633.83,1086.03 1634.5,1083.5C 1634.34,1085.2 1634.51,1086.87 1635,1088.5C 1675.45,1057.26 1720.45,1043.92 1770,1048.5C 1780.9,1050.61 1791.07,1055.11 1800.5,1062C 1822.7,1085.03 1820.03,1104.7 1792.5,1121C 1773.34,1126.98 1754,1133.31 1734.5,1140C 1727.44,1143.4 1721.28,1147.9 1716,1153.5C 1715.65,1155.22 1715.15,1156.88 1714.5,1158.5C 1715.33,1160.17 1716.17,1161.83 1717,1163.5C 1721.41,1167.29 1726.24,1170.46 1731.5,1173C 1737.01,1176.98 1740.67,1182.15 1742.5,1188.5 Z M 1769.5,1083.5 C 1767.37,1083.15 1765.04,1083.15 1762.5,1083.5C 1763.93,1081.62 1765.6,1080.95 1767.5,1081.5C 1769.47,1081.74 1771.3,1081.41 1773,1080.5C 1773.17,1080.83 1773.33,1081.17 1773.5,1081.5C 1772.05,1082.17 1770.72,1082.84 1769.5,1083.5 Z M 1757.5,1084.5 C 1755.16,1086.04 1752.5,1086.71 1749.5,1086.5C 1751.84,1084.96 1754.5,1084.29 1757.5,1084.5 Z M 1749.5,1086.5 C 1747.49,1087.92 1745.15,1088.59 1742.5,1088.5C 1744.51,1087.08 1746.85,1086.41 1749.5,1086.5 Z M 1742.5,1088.5 C 1739.86,1090.31 1736.86,1091.31 1733.5,1091.5C 1736.14,1089.69 1739.14,1088.69 1742.5,1088.5 Z M 1727.5,1093.5 C 1726.71,1094.4 1725.71,1095.07 1724.5,1095.5C 1723.51,1095.67 1722.84,1095.34 1722.5,1094.5C 1724.12,1093.96 1725.78,1093.63 1727.5,1093.5 Z M 1705.5,1101.5 C 1706.5,1101.5 1707.5,1101.5 1708.5,1101.5C 1707.17,1102.5 1705.83,1103.5 1704.5,1104.5C 1703.5,1104.5 1702.5,1104.5 1701.5,1104.5C 1702.83,1103.5 1704.17,1102.5 1705.5,1101.5 Z M 1699.5,1105.5 C 1699.17,1106.5 1698.5,1107.17 1697.5,1107.5C 1696.83,1107.5 1696.5,1107.17 1696.5,1106.5C 1697.39,1105.89 1698.39,1105.56 1699.5,1105.5 Z M 1691.5,1108.5 C 1692.5,1108.5 1693.5,1108.5 1694.5,1108.5C 1694.5,1108.83 1694.5,1109.17 1694.5,1109.5C 1693.17,1109.83 1691.83,1110.17 1690.5,1110.5C 1690.83,1109.83 1691.17,1109.17 1691.5,1108.5 Z M 1678.5,1117.5 C 1679,1115.92 1680,1115.42 1681.5,1116C 1680.76,1117.04 1679.76,1117.54 1678.5,1117.5 Z M 1673.5,1120.5 C 1673.03,1121.91 1672.03,1122.57 1670.5,1122.5C 1670.97,1121.09 1671.97,1120.43 1673.5,1120.5 Z M 1670.5,1122.5 C 1669.47,1124.19 1668.14,1125.53 1666.5,1126.5C 1665.66,1126.16 1665.33,1125.49 1665.5,1124.5C 1667.17,1123.83 1668.83,1123.17 1670.5,1122.5 Z M 1663.5,1126.5 C 1663.5,1127.17 1663.5,1127.83 1663.5,1128.5C 1662.83,1128.5 1662.17,1128.5 1661.5,1128.5C 1661.83,1127.5 1662.5,1126.83 1663.5,1126.5 Z M 1661.5,1128.5 C 1660.79,1130.13 1659.63,1131.47 1658,1132.5C 1657.88,1130.26 1659.04,1128.93 1661.5,1128.5 Z M 1648.5,1139.5 C 1649.93,1136.9 1651.93,1134.73 1654.5,1133C 1655.33,1132.31 1656,1132.48 1656.5,1133.5C 1654.1,1135.91 1651.43,1137.91 1648.5,1139.5 Z M 1648.5,1139.5 C 1648.03,1140.91 1647.03,1141.57 1645.5,1141.5C 1645.97,1140.09 1646.97,1139.43 1648.5,1139.5 Z M 1644.5,1141.5 C 1644.83,1141.5 1645.17,1141.5 1645.5,1141.5C 1645.5,1142.17 1645.5,1142.83 1645.5,1143.5C 1644.83,1143.5 1644.17,1143.5 1643.5,1143.5C 1643.83,1142.83 1644.17,1142.17 1644.5,1141.5 Z M 1639.5,1145.5 C 1640.49,1145.33 1641.16,1145.66 1641.5,1146.5C 1640.5,1147.17 1639.5,1147.83 1638.5,1148.5C 1638.56,1147.39 1638.89,1146.39 1639.5,1145.5 Z M 1638.5,1148.5 C 1633.83,1153.83 1628.83,1158.83 1623.5,1163.5C 1624.07,1161.74 1624.91,1160.08 1626,1158.5C 1629.51,1154.33 1633.68,1151 1638.5,1148.5 Z M 1623.5,1163.5 C 1619.18,1169.15 1614.51,1174.49 1609.5,1179.5C 1612.16,1174.87 1615.33,1170.54 1619,1166.5C 1620.13,1164.86 1621.63,1163.86 1623.5,1163.5 Z M 1608.5,1181.5 C 1605.44,1186.61 1602.1,1191.61 1598.5,1196.5C 1599.5,1197.17 1600.5,1197.83 1601.5,1198.5C 1599.63,1199.62 1597.63,1200.46 1595.5,1201C 1593.94,1203.05 1592.61,1205.22 1591.5,1207.5C 1590.66,1207.16 1590.33,1206.49 1590.5,1205.5C 1595.64,1197.9 1600.81,1190.23 1606,1182.5C 1606.67,1181.75 1607.5,1181.41 1608.5,1181.5 Z M 1660.5,1189.5 C 1664.85,1189.33 1669.18,1189.5 1673.5,1190C 1669.64,1190.18 1665.98,1190.68 1662.5,1191.5C 1662.17,1191.5 1661.83,1191.5 1661.5,1191.5C 1661.17,1190.83 1660.83,1190.17 1660.5,1189.5 Z M 1643.5,1190.5 C 1647.04,1190.19 1650.38,1190.52 1653.5,1191.5C 1636.87,1191.74 1620.54,1194.07 1604.5,1198.5C 1602.29,1197.73 1602.63,1196.89 1605.5,1196C 1612.9,1194.89 1619.9,1193.39 1626.5,1191.5C 1627.09,1191.71 1627.59,1192.04 1628,1192.5C 1633.36,1191.41 1638.52,1190.74 1643.5,1190.5 Z M 1696.5,1190.5 C 1700.87,1191.07 1705.2,1191.9 1709.5,1193C 1705.49,1192.99 1701.16,1192.82 1696.5,1192.5C 1696.5,1191.83 1696.5,1191.17 1696.5,1190.5 Z"/></g>
<g><path style="opacity:0.999" fill="#607379" d="M 1294.5,1050.5 C 1297.33,1051.08 1299.66,1052.41 1301.5,1054.5C 1299.4,1054.8 1297.4,1054.47 1295.5,1053.5C 1294.87,1052.58 1294.54,1051.58 1294.5,1050.5 Z"/></g>
<g><path style="opacity:0.009" fill="#eefcfb" d="M 1633.5,1046.5 C 1635,1053.27 1635.67,1060.27 1635.5,1067.5C 1635.5,1072.35 1635.17,1077.01 1634.5,1081.5C 1634.6,1069.82 1634.27,1058.15 1633.5,1046.5 Z"/></g>
<g><path style="opacity:0.013" fill="#effcfb" d="M 1593.5,1048.5 C 1594.46,1050.26 1594.79,1052.26 1594.5,1054.5C 1595.45,1055.92 1595.78,1057.59 1595.5,1059.5C 1594.53,1061.95 1594.19,1064.61 1594.5,1067.5C 1593.28,1062.71 1592.61,1057.71 1592.5,1052.5C 1593.43,1051.43 1593.77,1050.1 1593.5,1048.5 Z"/></g>
<g><path style="opacity:0.992" fill="#ebebeb" d="M 1315.5,1062.5 C 1396.96,1076.28 1475.96,1098.61 1552.5,1129.5C 1554.53,1136.9 1555.7,1144.56 1556,1152.5C 1556.83,1163.34 1556.66,1174.01 1555.5,1184.5C 1555.53,1189.86 1555.19,1195.2 1554.5,1200.5C 1474.63,1154.74 1394.97,1108.74 1315.5,1062.5 Z M 1555.5,1184.5 C 1554.78,1184.92 1554.28,1185.58 1554,1186.5C 1553.1,1182.97 1553.43,1179.63 1555,1176.5C 1555.5,1179.15 1555.66,1181.81 1555.5,1184.5 Z M 1551.5,1186.5 C 1554.99,1190.01 1555.49,1194.01 1553,1198.5C 1551.07,1197.12 1549.24,1195.62 1547.5,1194C 1548.99,1191.53 1550.32,1189.03 1551.5,1186.5 Z"/></g>
<g><path style="opacity:1" fill="#fefefe" d="M 1233.5,1031.5 C 1319.27,1081.56 1405.27,1131.39 1491.5,1181C 1496.83,1186 1496.83,1191 1491.5,1196C 1472.77,1206.36 1454.44,1217.19 1436.5,1228.5C 1409.39,1243.56 1382.39,1258.89 1355.5,1274.5C 1354.17,1275.17 1354.17,1275.83 1355.5,1276.5C 1367.87,1283.68 1380.2,1290.85 1392.5,1298C 1397.08,1299.48 1401.74,1299.81 1406.5,1299C 1432.49,1285.01 1458.15,1270.51 1483.5,1255.5C 1497.22,1263.11 1510.72,1271.11 1524,1279.5C 1525.3,1281.36 1525.63,1283.36 1525,1285.5C 1523.13,1287.71 1520.96,1289.54 1518.5,1291C 1333.34,1397.41 1148.34,1504.08 963.5,1611C 957.949,1613.74 952.282,1614.07 946.5,1612C 933.11,1604.98 920.11,1597.48 907.5,1589.5C 908.642,1587.57 910.308,1586.07 912.5,1585C 931.757,1573.81 951.09,1562.81 970.5,1552C 976.64,1549.28 977.974,1545.11 974.5,1539.5C 961.85,1531.26 948.683,1523.92 935,1517.5C 927.228,1521.14 919.395,1521.31 911.5,1518C 815.619,1462.42 719.619,1406.92 623.5,1351.5C 602.127,1363.9 580.793,1376.23 559.5,1388.5C 543.447,1380.06 527.947,1370.72 513,1360.5C 511.709,1355.44 513.542,1351.94 518.5,1350C 535.295,1340.7 551.962,1331.2 568.5,1321.5C 569.833,1320.83 569.833,1320.17 568.5,1319.5C 564.816,1317.47 561.15,1315.47 557.5,1313.5C 532.669,1298.86 507.669,1284.36 482.5,1270C 478.966,1265.92 478.633,1261.59 481.5,1257C 589.529,1193.98 697.863,1131.48 806.5,1069.5C 806.5,1071.17 806.5,1072.83 806.5,1074.5C 699.661,1135.75 592.994,1197.25 486.5,1259C 482.495,1262.36 482.828,1265.36 487.5,1268C 512.357,1281.93 537.024,1296.09 561.5,1310.5C 566.131,1313.82 571.131,1315.99 576.5,1317C 653.058,1272.56 729.725,1228.39 806.5,1184.5C 806.5,1205.17 806.5,1225.83 806.5,1246.5C 775.794,1263.36 745.461,1281.03 715.5,1299.5C 714.359,1301.42 714.192,1303.42 715,1305.5C 717.682,1307.9 720.515,1310.06 723.5,1312C 749.939,1326.93 776.273,1342.1 802.5,1357.5C 869.273,1395.97 936.106,1434.3 1003,1472.5C 1048.42,1446.87 1093.59,1420.87 1138.5,1394.5C 1184.74,1368.26 1230.74,1341.59 1276.5,1314.5C 1210.89,1275.42 1144.89,1237.08 1078.5,1199.5C 1055.84,1186.5 1033.17,1173.5 1010.5,1160.5C 1034.14,1146.01 1058.14,1132.01 1082.5,1118.5C 1170.83,1170.25 1259.66,1221.58 1349,1272.5C 1376.53,1256.98 1404.03,1241.32 1431.5,1225.5C 1450.64,1214.09 1469.98,1202.93 1489.5,1192C 1492.17,1189.67 1492.17,1187.33 1489.5,1185C 1402.47,1134.82 1315.47,1084.65 1228.5,1034.5C 1229.9,1033.11 1231.57,1032.11 1233.5,1031.5 Z"/></g>
<g><path style="opacity:0.014" fill="#eafbfa" d="M 1594.5,1068.5 C 1595.17,1068.5 1595.83,1068.5 1596.5,1068.5C 1596.5,1068.83 1596.5,1069.17 1596.5,1069.5C 1595.52,1073.63 1595.18,1077.97 1595.5,1082.5C 1594.51,1078.03 1594.18,1073.36 1594.5,1068.5 Z"/></g>
<g><path style="opacity:1" fill="#eeeeee" d="M 1165.5,1070.5 C 1254.17,1122.17 1342.83,1173.83 1431.5,1225.5C 1404.03,1241.32 1376.53,1256.98 1349,1272.5C 1259.66,1221.58 1170.83,1170.25 1082.5,1118.5C 1109.97,1102.26 1137.63,1086.26 1165.5,1070.5 Z"/></g>
<g><path style="opacity:1" fill="#eeeeee" d="M 806.5,1074.5 C 806.5,1105.83 806.5,1137.17 806.5,1168.5C 806.5,1168.83 806.5,1169.17 806.5,1169.5C 724.57,1216.11 642.904,1263.11 561.5,1310.5C 537.024,1296.09 512.357,1281.93 487.5,1268C 482.828,1265.36 482.495,1262.36 486.5,1259C 592.994,1197.25 699.661,1135.75 806.5,1074.5 Z"/></g>
<g><path style="opacity:0.855" fill="#9ef6f1" d="M 1769.5,1083.5 C 1770.72,1082.84 1772.05,1082.17 1773.5,1081.5C 1773.33,1081.17 1773.17,1080.83 1773,1080.5C 1771.3,1081.41 1769.47,1081.74 1767.5,1081.5C 1769.51,1080.08 1771.85,1079.41 1774.5,1079.5C 1774.5,1080.83 1774.5,1082.17 1774.5,1083.5C 1772.83,1083.5 1771.17,1083.5 1769.5,1083.5 Z"/></g>
<g><path style="opacity:0.007" fill="#f6fefe" d="M 1722.5,1094.5 C 1722.84,1095.34 1723.51,1095.67 1724.5,1095.5C 1723.22,1096.93 1721.55,1097.6 1719.5,1097.5C 1719.16,1096.66 1718.49,1096.33 1717.5,1096.5C 1718.78,1095.07 1720.45,1094.4 1722.5,1094.5 Z"/></g>
<g><path style="opacity:1" fill="#4b5b60" d="M 1266.5,1098.5 C 1273.26,1097.67 1279.59,1098.83 1285.5,1102C 1311,1117.25 1336.67,1132.25 1362.5,1147C 1366.18,1148.93 1367.18,1151.76 1365.5,1155.5C 1357.39,1160.97 1349.73,1160.47 1342.5,1154C 1315.57,1139.3 1288.9,1124.13 1262.5,1108.5C 1259.89,1103.71 1261.22,1100.38 1266.5,1098.5 Z"/></g>
<g><path style="opacity:0.013" fill="#ecfcfa" d="M 1595.5,1092.5 C 1595.16,1094.48 1595.82,1095.82 1597.5,1096.5C 1597.5,1097.83 1597.5,1099.17 1597.5,1100.5C 1596.78,1100.08 1596.28,1099.42 1596,1098.5C 1595.82,1101.69 1595.32,1104.69 1594.5,1107.5C 1594.18,1102.31 1594.51,1097.31 1595.5,1092.5 Z"/></g>
<g><path style="opacity:1" fill="#87eee5" d="M 1714.5,1097.5 C 1715.21,1098.4 1716.21,1098.74 1717.5,1098.5C 1714.23,1100.81 1710.9,1103.14 1707.5,1105.5C 1706.58,1104.87 1705.58,1104.54 1704.5,1104.5C 1705.83,1103.5 1707.17,1102.5 1708.5,1101.5C 1707.5,1101.5 1706.5,1101.5 1705.5,1101.5C 1706.61,1100.34 1707.61,1099.01 1708.5,1097.5C 1710.48,1098.62 1712.48,1098.62 1714.5,1097.5 Z"/></g>
<g><path style="opacity:0.009" fill="#e9fcfc" d="M 1696.5,1106.5 C 1696.5,1107.17 1696.83,1107.5 1697.5,1107.5C 1697.03,1108.91 1696.03,1109.57 1694.5,1109.5C 1694.5,1109.17 1694.5,1108.83 1694.5,1108.5C 1693.5,1108.5 1692.5,1108.5 1691.5,1108.5C 1692.78,1107.07 1694.45,1106.4 1696.5,1106.5 Z"/></g>
<g><path style="opacity:0.012" fill="#f7fefd" d="M 1686.5,1111.5 C 1686.5,1111.83 1686.5,1112.17 1686.5,1112.5C 1685.83,1112.5 1685.5,1112.83 1685.5,1113.5C 1684.83,1113.5 1684.17,1113.5 1683.5,1113.5C 1683.97,1112.09 1684.97,1111.43 1686.5,1111.5 Z"/></g>
<g><path style="opacity:0.643" fill="#a1eeea" d="M 1597.5,1101.5 C 1597.78,1107.42 1597.12,1113.08 1595.5,1118.5C 1595.32,1112.6 1595.99,1106.93 1597.5,1101.5 Z"/></g>
<g><path style="opacity:0.008" fill="#f1fefd" d="M 1676.5,1117.5 C 1676.5,1117.83 1676.5,1118.17 1676.5,1118.5C 1675.83,1118.5 1675.5,1118.83 1675.5,1119.5C 1674.83,1119.5 1674.17,1119.5 1673.5,1119.5C 1673.97,1118.09 1674.97,1117.43 1676.5,1117.5 Z"/></g>
<g><path style="opacity:0.007" fill="#f3fcfc" d="M 1594.5,1109.5 C 1594.19,1112.71 1594.52,1115.71 1595.5,1118.5C 1595.5,1118.83 1595.5,1119.17 1595.5,1119.5C 1594.83,1119.5 1594.5,1119.83 1594.5,1120.5C 1593.17,1121.83 1593.17,1123.17 1594.5,1124.5C 1594.79,1126.74 1594.46,1128.74 1593.5,1130.5C 1593.78,1128.59 1593.45,1126.92 1592.5,1125.5C 1592.67,1119.97 1593.34,1114.63 1594.5,1109.5 Z"/></g>
<g><path style="opacity:0.009" fill="#f6fefe" d="M 1665.5,1124.5 C 1665.33,1125.49 1665.66,1126.16 1666.5,1126.5C 1666.03,1127.91 1665.03,1128.57 1663.5,1128.5C 1663.5,1127.83 1663.5,1127.17 1663.5,1126.5C 1663.83,1125.5 1664.5,1124.83 1665.5,1124.5 Z"/></g>
<g><path style="opacity:0.018" fill="#f2fcfd" d="M 1592.5,1125.5 C 1592.06,1129.37 1592.06,1133.04 1592.5,1136.5C 1592.5,1137.5 1592.5,1138.5 1592.5,1139.5C 1592.5,1140.17 1592.17,1140.5 1591.5,1140.5C 1591.74,1139.21 1591.4,1138.21 1590.5,1137.5C 1590.54,1133.27 1591.21,1129.27 1592.5,1125.5 Z"/></g>
<g><path style="opacity:0.012" fill="#eafcfc" d="M 1644.5,1141.5 C 1644.17,1142.17 1643.83,1142.83 1643.5,1143.5C 1644.17,1143.5 1644.83,1143.5 1645.5,1143.5C 1644.56,1144.97 1643.23,1145.97 1641.5,1146.5C 1641.16,1145.66 1640.49,1145.33 1639.5,1145.5C 1640.58,1143.41 1642.25,1142.08 1644.5,1141.5 Z"/></g>
<g><path style="opacity:0.149" fill="#eafdfb" d="M 1590.5,1137.5 C 1590.26,1138.79 1590.6,1139.79 1591.5,1140.5C 1590.74,1142.37 1589.74,1144.04 1588.5,1145.5C 1588.8,1142.63 1589.47,1139.96 1590.5,1137.5 Z"/></g>
<g><path style="opacity:1" fill="#efefef" d="M 1081.5,1145.5 C 1087,1145.12 1092,1146.46 1096.5,1149.5C 1097.47,1151.4 1097.8,1153.4 1097.5,1155.5C 1101.94,1155.21 1106.27,1155.71 1110.5,1157C 1115.83,1160.67 1115.83,1164.33 1110.5,1168C 1105.19,1169.97 1099.69,1170.8 1094,1170.5C 1087.41,1170.54 1080.91,1169.88 1074.5,1168.5C 1074.24,1165.98 1073.41,1163.65 1072,1161.5C 1069.82,1152.85 1072.98,1147.52 1081.5,1145.5 Z"/></g>
<g><path style="opacity:1" fill="#e7e7e7" d="M 1010.5,1160.5 C 1033.17,1173.5 1055.84,1186.5 1078.5,1199.5C 1078.02,1203.1 1076.86,1206.43 1075,1209.5C 1064.64,1220.85 1052.14,1229.01 1037.5,1234C 1014.24,1240.39 991.569,1243.56 969.5,1243.5C 976.756,1219.56 983.922,1195.56 991,1171.5C 997.149,1167.18 1003.65,1163.51 1010.5,1160.5 Z"/></g>
<g><path style="opacity:1" fill="#4c5b60" d="M 1388.5,1164.5 C 1396.55,1163.45 1403.72,1165.45 1410,1170.5C 1411.76,1177.76 1408.93,1182.26 1401.5,1184C 1395.83,1184.67 1390.17,1184.67 1384.5,1184C 1377.46,1181.7 1374.96,1177.2 1377,1170.5C 1380.3,1167.29 1384.14,1165.29 1388.5,1164.5 Z"/></g>
<g><path style="opacity:1" fill="#5b6d74" d="M 806.5,1169.5 C 806.5,1174.5 806.5,1179.5 806.5,1184.5C 729.725,1228.39 653.058,1272.56 576.5,1317C 571.131,1315.99 566.131,1313.82 561.5,1310.5C 642.904,1263.11 724.57,1216.11 806.5,1169.5 Z"/></g>
<g><path style="opacity:0.01" fill="#fefffe" d="M 1643.5,1190.5 C 1648.98,1189.51 1654.64,1189.18 1660.5,1189.5C 1660.83,1190.17 1661.17,1190.83 1661.5,1191.5C 1660.5,1191.5 1659.5,1191.5 1658.5,1191.5C 1657.83,1190.17 1657.17,1190.17 1656.5,1191.5C 1655.5,1191.5 1654.5,1191.5 1653.5,1191.5C 1650.38,1190.52 1647.04,1190.19 1643.5,1190.5 Z"/></g>
<g><path style="opacity:0.009" fill="#edfdfc" d="M 1660.5,1189.5 C 1662.64,1188.84 1664.97,1188.5 1667.5,1188.5C 1676.01,1188.91 1684.34,1189.58 1692.5,1190.5C 1688.63,1190.19 1684.96,1190.52 1681.5,1191.5C 1680.17,1191.5 1678.83,1191.5 1677.5,1191.5C 1677.17,1190.17 1676.83,1190.17 1676.5,1191.5C 1676.17,1191.5 1675.83,1191.5 1675.5,1191.5C 1675.17,1190.17 1674.83,1190.17 1674.5,1191.5C 1670.5,1191.5 1666.5,1191.5 1662.5,1191.5C 1665.98,1190.68 1669.64,1190.18 1673.5,1190C 1669.18,1189.5 1664.85,1189.33 1660.5,1189.5 Z"/></g>
<g><path style="opacity:0.01" fill="#fefffe" d="M 1695.5,1190.5 C 1695.83,1190.5 1696.17,1190.5 1696.5,1190.5C 1696.5,1191.17 1696.5,1191.83 1696.5,1192.5C 1693.29,1192.81 1690.29,1192.48 1687.5,1191.5C 1690.39,1191.81 1693.05,1191.47 1695.5,1190.5 Z"/></g>
<g><path style="opacity:0.808" fill="#acf7f4" d="M 1742.5,1188.5 C 1743.27,1190.68 1743.93,1193.02 1744.5,1195.5C 1743.93,1197.98 1743.27,1200.32 1742.5,1202.5C 1742.5,1197.83 1742.5,1193.17 1742.5,1188.5 Z"/></g>
<g><path style="opacity:1" fill="#eeefef" d="M 1078.5,1199.5 C 1144.89,1237.08 1210.89,1275.42 1276.5,1314.5C 1230.74,1341.59 1184.74,1368.26 1138.5,1394.5C 1150.91,1376.89 1163.25,1359.05 1175.5,1341C 1174.67,1340.83 1173.83,1340.67 1173,1340.5C 1101.03,1354.53 1028.53,1368.86 955.5,1383.5C 955.167,1383.17 954.833,1382.83 954.5,1382.5C 964.328,1358.84 974.828,1335.51 986,1312.5C 986.991,1310.55 987.325,1308.55 987,1306.5C 926.454,1322.97 865.788,1339.3 805,1355.5C 803.624,1355.68 802.791,1356.35 802.5,1357.5C 776.273,1342.1 749.939,1326.93 723.5,1312C 720.515,1310.06 717.682,1307.9 715,1305.5C 714.192,1303.42 714.359,1301.42 715.5,1299.5C 745.461,1281.03 775.794,1263.36 806.5,1246.5C 806.334,1253.51 806.5,1260.51 807,1267.5C 808.366,1271.77 811.199,1273.27 815.5,1272C 846.245,1254.88 876.745,1237.38 907,1219.5C 918.667,1244.83 930.333,1270.17 942,1295.5C 945.355,1300.31 949.021,1300.64 953,1296.5C 958.964,1278.98 964.464,1261.31 969.5,1243.5C 991.569,1243.56 1014.24,1240.39 1037.5,1234C 1052.14,1229.01 1064.64,1220.85 1075,1209.5C 1076.86,1206.43 1078.02,1203.1 1078.5,1199.5 Z"/></g>
<g><path style="opacity:0.108" fill="#f3fdfc" d="M 1590.5,1205.5 C 1590.33,1206.49 1590.66,1207.16 1591.5,1207.5C 1589.58,1211.02 1587.91,1214.68 1586.5,1218.5C 1585.39,1218.44 1584.39,1218.11 1583.5,1217.5C 1585.34,1213.14 1587.68,1209.14 1590.5,1205.5 Z"/></g>
<g><path style="opacity:1" fill="#04e1cf" d="M 450.5,1374.5 C 442.389,1378.77 434.389,1383.27 426.5,1388C 424.959,1389.37 423.625,1390.87 422.5,1392.5C 417.674,1396.66 414.008,1401.66 411.5,1407.5C 403.921,1392.01 396.588,1376.34 389.5,1360.5C 402.508,1340.8 408.508,1319.14 407.5,1295.5C 405.704,1316.69 399.871,1336.69 390,1355.5C 389.107,1356.71 388.274,1356.71 387.5,1355.5C 373.273,1322.43 365.273,1287.93 363.5,1252C 363.403,1242.54 364.403,1233.21 366.5,1224C 366.065,1220.94 365.232,1220.77 364,1223.5C 359.4,1246.2 359.734,1268.87 365,1291.5C 372.813,1326.94 384.98,1360.78 401.5,1393C 380.728,1391.89 361.061,1386.56 342.5,1377C 339.319,1374.91 336.319,1372.57 333.5,1370C 332.365,1369.25 331.365,1369.42 330.5,1370.5C 332.688,1373.52 335.355,1376.02 338.5,1378C 358.912,1388.52 380.579,1394.85 403.5,1397C 405.716,1401.93 408.05,1406.77 410.5,1411.5C 410.334,1420.17 410.5,1428.84 411,1437.5C 411.671,1441.68 412.838,1445.68 414.5,1449.5C 385.437,1442.99 359.103,1430.82 335.5,1413C 326.671,1406.18 320.171,1397.68 316,1387.5C 310.848,1360.03 322.348,1346.86 350.5,1348C 353.784,1346.6 355.451,1344.1 355.5,1340.5C 349.328,1326.82 343.161,1313.16 337,1299.5C 330.995,1285.72 328.995,1271.39 331,1256.5C 334.049,1237.55 342.882,1222.05 357.5,1210C 368.142,1203.41 375.642,1205.91 380,1217.5C 380.735,1227.59 382.068,1237.59 384,1247.5C 385.359,1253.92 387.693,1259.92 391,1265.5C 392.952,1267.89 395.452,1269.39 398.5,1270C 404.782,1271.09 411.116,1271.76 417.5,1272C 419.5,1273 421.5,1274 423.5,1275C 429.791,1282.07 432.458,1290.41 431.5,1300C 429.691,1308.65 430.191,1317.15 433,1325.5C 438.225,1328.79 442.892,1332.79 447,1337.5C 452.894,1349.34 454.061,1361.68 450.5,1374.5 Z"/></g>
<g><path style="opacity:1" fill="#ebebeb" d="M 1436.5,1228.5 C 1452.66,1236.75 1468.33,1245.75 1483.5,1255.5C 1458.15,1270.51 1432.49,1285.01 1406.5,1299C 1401.74,1299.81 1397.08,1299.48 1392.5,1298C 1380.2,1290.85 1367.87,1283.68 1355.5,1276.5C 1354.17,1275.83 1354.17,1275.17 1355.5,1274.5C 1382.39,1258.89 1409.39,1243.56 1436.5,1228.5 Z"/></g>
<g><path style="opacity:1" fill="#1a2e35" d="M 1624.5,1243.5 C 1632.21,1252.48 1635.21,1262.98 1633.5,1275C 1634.69,1286.05 1632.36,1296.22 1626.5,1305.5C 1620.55,1311.28 1613.88,1316.11 1606.5,1320C 1373,1454.92 1139.33,1589.59 905.5,1724C 900.937,1725.47 896.27,1726.31 891.5,1726.5C 891.5,1707.5 891.5,1688.5 891.5,1669.5C 898.507,1668.91 905.174,1667.08 911.5,1664C 1142.57,1529.66 1374.24,1396 1606.5,1263C 1612.23,1259.94 1617.4,1256.1 1622,1251.5C 1622.94,1248.75 1623.78,1246.08 1624.5,1243.5 Z"/></g>
<g><path style="opacity:1" fill="#e7e7e7" d="M 1138.5,1394.5 C 1093.59,1420.87 1048.42,1446.87 1003,1472.5C 936.106,1434.3 869.273,1395.97 802.5,1357.5C 802.791,1356.35 803.624,1355.68 805,1355.5C 865.788,1339.3 926.454,1322.97 987,1306.5C 987.325,1308.55 986.991,1310.55 986,1312.5C 974.828,1335.51 964.328,1358.84 954.5,1382.5C 954.833,1382.83 955.167,1383.17 955.5,1383.5C 1028.53,1368.86 1101.03,1354.53 1173,1340.5C 1173.83,1340.67 1174.67,1340.83 1175.5,1341C 1163.25,1359.05 1150.91,1376.89 1138.5,1394.5 Z"/></g>
<g><path style="opacity:1" fill="#2b454e" d="M 1248.5,1023.5 C 1251.54,1024.68 1254.21,1026.35 1256.5,1028.5C 1256.97,1029.9 1257.64,1031.23 1258.5,1032.5C 1259.09,1032.29 1259.59,1031.96 1260,1031.5C 1261.81,1034.04 1264.31,1035.04 1267.5,1034.5C 1268.17,1034.5 1268.5,1034.83 1268.5,1035.5C 1267.47,1035.9 1267.31,1036.56 1268,1037.5C 1268.33,1037.17 1268.67,1036.83 1269,1036.5C 1271.71,1038.03 1274.04,1040.03 1276,1042.5C 1276.33,1042.17 1276.67,1041.83 1277,1041.5C 1277.44,1043.68 1278.44,1044.35 1280,1043.5C 1281.95,1046.41 1284.45,1047.41 1287.5,1046.5C 1290.33,1047.08 1292.66,1048.41 1294.5,1050.5C 1294.54,1051.58 1294.87,1052.58 1295.5,1053.5C 1297.4,1054.47 1299.4,1054.8 1301.5,1054.5C 1306.53,1056.68 1311.2,1059.34 1315.5,1062.5C 1394.97,1108.74 1474.63,1154.74 1554.5,1200.5C 1557.8,1202.49 1561.13,1204.49 1564.5,1206.5C 1570.67,1210.42 1577,1214.09 1583.5,1217.5C 1584.39,1218.11 1585.39,1218.44 1586.5,1218.5C 1598.97,1225.9 1611.3,1233.57 1623.5,1241.5C 1623.83,1242.17 1624.17,1242.83 1624.5,1243.5C 1623.78,1246.08 1622.94,1248.75 1622,1251.5C 1617.4,1256.1 1612.23,1259.94 1606.5,1263C 1374.24,1396 1142.57,1529.66 911.5,1664C 905.174,1667.08 898.507,1668.91 891.5,1669.5C 885.996,1669.08 880.662,1667.92 875.5,1666C 725.264,1579.07 574.764,1491.9 424,1404.5C 421.427,1400.74 420.927,1396.74 422.5,1392.5C 423.625,1390.87 424.959,1389.37 426.5,1388C 434.389,1383.27 442.389,1378.77 450.5,1374.5C 485.749,1353.38 521.416,1333.04 557.5,1313.5C 561.15,1315.47 564.816,1317.47 568.5,1319.5C 569.833,1320.17 569.833,1320.83 568.5,1321.5C 551.962,1331.2 535.295,1340.7 518.5,1350C 513.542,1351.94 511.709,1355.44 513,1360.5C 527.947,1370.72 543.447,1380.06 559.5,1388.5C 675.138,1455.99 791.138,1522.99 907.5,1589.5C 920.11,1597.48 933.11,1604.98 946.5,1612C 952.282,1614.07 957.949,1613.74 963.5,1611C 1148.34,1504.08 1333.34,1397.41 1518.5,1291C 1520.96,1289.54 1523.13,1287.71 1525,1285.5C 1525.63,1283.36 1525.3,1281.36 1524,1279.5C 1510.72,1271.11 1497.22,1263.11 1483.5,1255.5C 1468.33,1245.75 1452.66,1236.75 1436.5,1228.5C 1454.44,1217.19 1472.77,1206.36 1491.5,1196C 1496.83,1191 1496.83,1186 1491.5,1181C 1405.27,1131.39 1319.27,1081.56 1233.5,1031.5C 1238.02,1027.99 1243.02,1025.32 1248.5,1023.5 Z"/></g>
<g><path style="opacity:1" fill="#ececec" d="M 1071.5,1493.5 C 1091.25,1463.9 1111.25,1434.4 1131.5,1405C 1131.27,1404.6 1130.94,1404.43 1130.5,1404.5C 1180.04,1375.72 1229.71,1346.89 1279.5,1318C 1283.11,1317.79 1286.45,1318.79 1289.5,1321C 1299.67,1327.25 1310,1333.25 1320.5,1339C 1323.65,1341.77 1324.15,1344.94 1322,1348.5C 1238.72,1397.22 1155.22,1445.56 1071.5,1493.5 Z"/></g>
<g><path style="opacity:1" fill="#efefef" d="M 689.5,1313.5 C 691.527,1313.34 693.527,1313.5 695.5,1314C 704.665,1319.08 713.665,1324.41 722.5,1330C 723.451,1330.72 723.617,1331.55 723,1332.5C 716.43,1337.09 709.43,1340.76 702,1343.5C 695.103,1341.3 688.603,1338.13 682.5,1334C 676.821,1333.8 671.155,1333.8 665.5,1334C 668.412,1332.76 671.079,1331.09 673.5,1329C 670.961,1327.9 670.295,1326.23 671.5,1324C 677.669,1320.64 683.669,1317.14 689.5,1313.5 Z"/></g>
<g><path style="opacity:1" fill="#efefef" d="M 734.5,1345.5 C 740.883,1344.48 746.383,1346.14 751,1350.5C 751.494,1352.13 751.66,1353.8 751.5,1355.5C 756.449,1354.96 761.116,1355.79 765.5,1358C 769.65,1361.58 769.316,1364.75 764.5,1367.5C 759.474,1369.96 754.14,1370.96 748.5,1370.5C 741.629,1370.79 734.962,1369.79 728.5,1367.5C 725.666,1362.51 724.833,1357.18 726,1351.5C 728.322,1348.6 731.155,1346.6 734.5,1345.5 Z"/></g>
<g><path style="opacity:1" fill="#efefef" d="M 632.5,1347.5 C 637.827,1346.98 642.827,1347.98 647.5,1350.5C 741.724,1405.23 836.058,1459.73 930.5,1514C 924.114,1516.13 917.781,1515.79 911.5,1513C 817.629,1458.3 723.629,1403.8 629.5,1349.5C 630.602,1348.82 631.602,1348.16 632.5,1347.5 Z"/></g>
<g><path style="opacity:1" fill="#ebebeb" d="M 907.5,1589.5 C 791.138,1522.99 675.138,1455.99 559.5,1388.5C 580.793,1376.23 602.127,1363.9 623.5,1351.5C 719.619,1406.92 815.619,1462.42 911.5,1518C 919.395,1521.31 927.228,1521.14 935,1517.5C 948.683,1523.92 961.85,1531.26 974.5,1539.5C 977.974,1545.11 976.64,1549.28 970.5,1552C 951.09,1562.81 931.757,1573.81 912.5,1585C 910.308,1586.07 908.642,1587.57 907.5,1589.5 Z"/></g>
<g><path style="opacity:1" fill="#f5fdfc" d="M 411.5,1407.5 C 411.768,1409.1 411.434,1410.43 410.5,1411.5C 408.05,1406.77 405.716,1401.93 403.5,1397C 380.579,1394.85 358.912,1388.52 338.5,1378C 335.355,1376.02 332.688,1373.52 330.5,1370.5C 331.365,1369.42 332.365,1369.25 333.5,1370C 336.319,1372.57 339.319,1374.91 342.5,1377C 361.061,1386.56 380.728,1391.89 401.5,1393C 384.98,1360.78 372.813,1326.94 365,1291.5C 359.734,1268.87 359.4,1246.2 364,1223.5C 365.232,1220.77 366.065,1220.94 366.5,1224C 364.403,1233.21 363.403,1242.54 363.5,1252C 365.273,1287.93 373.273,1322.43 387.5,1355.5C 388.274,1356.71 389.107,1356.71 390,1355.5C 399.871,1336.69 405.704,1316.69 407.5,1295.5C 408.508,1319.14 402.508,1340.8 389.5,1360.5C 396.588,1376.34 403.921,1392.01 411.5,1407.5 Z"/></g>
<g><path style="opacity:1" fill="#395a64" d="M 422.5,1392.5 C 420.927,1396.74 421.427,1400.74 424,1404.5C 574.764,1491.9 725.264,1579.07 875.5,1666C 880.662,1667.92 885.996,1669.08 891.5,1669.5C 891.5,1688.5 891.5,1707.5 891.5,1726.5C 884.238,1726.85 877.571,1725.02 871.5,1721C 723.33,1635.08 574.997,1549.41 426.5,1464C 421.915,1459.98 417.915,1455.48 414.5,1450.5C 414.5,1450.17 414.5,1449.83 414.5,1449.5C 412.838,1445.68 411.671,1441.68 411,1437.5C 410.5,1428.84 410.334,1420.17 410.5,1411.5C 411.434,1410.43 411.768,1409.1 411.5,1407.5C 414.008,1401.66 417.674,1396.66 422.5,1392.5 Z"/></g>
<g><path style="opacity:1" fill="#e1e1e1" d="M 1130.5,1404.5 C 1130.94,1404.43 1131.27,1404.6 1131.5,1405C 1111.25,1434.4 1091.25,1463.9 1071.5,1493.5C 1064.94,1498.3 1057.6,1500.13 1049.5,1499C 1035.21,1492.19 1021.55,1484.36 1008.5,1475.5C 1049.16,1451.83 1089.83,1428.17 1130.5,1404.5 Z"/></g>
<g><path style="opacity:1" fill="#dfdfe0" d="M 1626.5,1305.5 C 1632.34,1311.87 1631.67,1317.71 1624.5,1323C 1384.44,1461.36 1144.44,1599.69 904.5,1738C 891.538,1742.27 879.205,1740.94 867.5,1734C 716.429,1646.13 565.096,1558.8 413.5,1472C 403.877,1464.24 404.21,1457.07 414.5,1450.5C 417.915,1455.48 421.915,1459.98 426.5,1464C 574.997,1549.41 723.33,1635.08 871.5,1721C 877.571,1725.02 884.238,1726.85 891.5,1726.5C 896.27,1726.31 900.937,1725.47 905.5,1724C 1139.33,1589.59 1373,1454.92 1606.5,1320C 1613.88,1316.11 1620.55,1311.28 1626.5,1305.5 Z"/></g>
<g><path style="opacity:1" fill="#1a2e35" d="M 681.5,1492.5 C 694.516,1491 706.849,1493.17 718.5,1499C 729.441,1508.45 729.108,1517.45 717.5,1526C 700.511,1534.62 683.511,1534.62 666.5,1526C 655.351,1518.14 654.685,1509.48 664.5,1500C 669.888,1496.6 675.555,1494.1 681.5,1492.5 Z"/></g>
</svg>
