<svg xmlns="http://www.w3.org/2000/svg" xmlns:xlink="http://www.w3.org/1999/xlink" width="500" zoomAndPan="magnify" viewBox="0 0 375 374.999991" height="500" preserveAspectRatio="xMidYMid meet" version="1.0"><defs><g/><clipPath id="30499d63f9"><path d="M 0 22.117188 L 373 22.117188 L 373 151 L 0 151 Z M 0 22.117188 " clip-rule="nonzero"/></clipPath><clipPath id="6c60cd18ee"><path d="M 4 141 L 375 141 L 375 266.617188 L 4 266.617188 Z M 4 141 " clip-rule="nonzero"/></clipPath></defs><g clip-path="url(#30499d63f9)"><path fill="#074e50" d="M 42.578125 150.59375 C 44.058594 150.59375 45.535156 150.027344 46.664062 148.898438 C 48.921875 146.640625 48.921875 142.976562 46.664062 140.714844 L 20.296875 114.328125 L 60.261719 114.328125 C 74.496094 114.328125 87.386719 106.417969 93.109375 94.179688 C 110.269531 57.441406 147.488281 33.707031 187.917969 33.707031 C 228.351562 33.707031 265.570312 57.441406 282.738281 94.179688 C 288.460938 106.417969 301.355469 114.328125 315.585938 114.328125 L 366.480469 114.328125 C 369.675781 114.328125 372.261719 111.742188 372.261719 108.542969 C 372.261719 105.34375 369.675781 102.757812 366.480469 102.757812 L 315.585938 102.757812 C 305.824219 102.757812 297.035156 97.46875 293.207031 89.277344 C 274.148438 48.492188 232.820312 22.136719 187.917969 22.136719 C 143.015625 22.136719 101.691406 48.492188 82.632812 89.277344 C 78.804688 97.46875 70.023438 102.757812 60.261719 102.757812 L 20.296875 102.757812 L 46.664062 76.359375 C 48.921875 74.097656 48.921875 70.4375 46.664062 68.175781 C 44.40625 65.917969 40.75 65.917969 38.492188 68.175781 L 2.257812 104.449219 C 0 106.714844 0 110.375 2.257812 112.632812 L 38.492188 148.898438 C 39.621094 150.027344 41.097656 150.59375 42.578125 150.59375 " fill-opacity="1" fill-rule="nonzero"/></g><g clip-path="url(#6c60cd18ee)"><path fill="#074e50" d="M 372.742188 179.25 L 336.515625 142.988281 C 334.253906 140.730469 330.597656 140.730469 328.339844 142.988281 C 326.085938 145.25 326.085938 148.910156 328.339844 151.171875 L 354.703125 177.558594 L 314.230469 177.558594 C 300.34375 177.558594 287.558594 185.175781 281.660156 196.972656 C 263.78125 232.785156 227.863281 255.023438 187.917969 255.023438 C 147.984375 255.023438 112.0625 232.785156 94.179688 196.972656 C 88.289062 185.175781 75.503906 177.558594 61.613281 177.558594 L 10.210938 177.558594 C 7.015625 177.558594 4.429688 180.144531 4.429688 183.34375 C 4.429688 186.542969 7.015625 189.128906 10.210938 189.128906 L 61.613281 189.128906 C 71.171875 189.128906 79.890625 194.238281 83.84375 202.148438 C 103.699219 241.902344 143.578125 266.597656 187.917969 266.597656 C 232.273438 266.597656 272.152344 241.902344 292 202.148438 C 295.953125 194.238281 304.679688 189.128906 314.230469 189.128906 L 354.703125 189.128906 L 328.339844 215.527344 C 326.085938 217.789062 326.085938 221.449219 328.339844 223.710938 C 329.46875 224.839844 330.949219 225.40625 332.425781 225.40625 C 333.90625 225.40625 335.386719 224.839844 336.515625 223.710938 L 372.742188 187.433594 C 375 185.175781 375 181.515625 372.742188 179.25 " fill-opacity="1" fill-rule="nonzero"/></g><path fill="#074e50" d="M 170.214844 133.335938 C 168.878906 132.082031 167.882812 130.625 167.296875 129.109375 C 166.703125 127.359375 166.34375 125.734375 166.191406 124.125 C 165.925781 119.15625 167.5625 114.757812 171.0625 111.074219 C 174.066406 107.945312 178.390625 106 183.953125 105.300781 L 183.953125 139.914062 C 180.910156 139.347656 178.457031 138.589844 176.527344 137.621094 C 173.761719 136.195312 171.710938 134.820312 170.214844 133.335938 Z M 206.109375 178.28125 C 205 179.613281 203.355469 180.878906 201.324219 181.976562 C 199.929688 182.753906 198.058594 183.332031 195.726562 183.703125 L 195.726562 152.003906 C 200.039062 153.214844 203.1875 155.011719 205.292969 157.417969 C 207.898438 160.449219 209.105469 164.886719 208.96875 170.992188 C 208.96875 171.015625 208.96875 171.035156 208.96875 171.058594 C 208.96875 171.488281 208.878906 172.460938 208.269531 174.28125 C 207.867188 175.605469 207.117188 176.980469 206.109375 178.28125 Z M 215.050781 153.417969 C 213.125 150.558594 210.445312 148.050781 207.125 145.972656 C 204.171875 144.0625 200.429688 142.617188 195.726562 141.574219 L 195.726562 106.285156 C 196.90625 106.699219 197.976562 107.21875 198.960938 107.886719 C 200.84375 109.164062 202.476562 110.644531 203.847656 112.316406 C 205.058594 113.753906 206.042969 115.539062 206.679688 117.4375 C 207.3125 119.394531 207.714844 121.3125 207.875 123.234375 C 208.320312 127.007812 210.964844 128.117188 213.21875 127.832031 C 214.398438 127.695312 217.234375 126.929688 218.160156 122.195312 C 217.972656 114.535156 215.496094 108.296875 210.800781 103.648438 C 206.816406 99.695312 201.753906 97.105469 195.726562 95.953125 L 195.726562 90.394531 C 195.726562 88.652344 195.058594 87.128906 193.644531 85.863281 C 191.25 83.996094 188.28125 83.886719 185.707031 86.054688 C 184.90625 86.835938 183.953125 88.214844 183.953125 90.394531 L 183.953125 95.289062 C 180.285156 95.648438 176.863281 96.417969 173.542969 97.636719 C 169.3125 99.265625 165.953125 101.324219 163.3125 103.910156 C 160.597656 106.488281 158.484375 109.605469 157 113.222656 C 155.585938 116.859375 155.050781 120.691406 155.417969 124.667969 C 156.25 131.9375 159.328125 137.9375 164.613281 142.535156 C 169.640625 146.75 176.300781 149.328125 183.953125 150.152344 L 183.972656 183.898438 C 177.800781 183.308594 172.960938 181.726562 169.566406 179.148438 C 165.65625 176.1875 163.257812 172.652344 162.28125 168.628906 C 162.019531 166.527344 160.46875 164.253906 156.980469 164.164062 C 154.746094 164.007812 153.542969 164.910156 152.894531 165.703125 C 152.375 166.324219 151.578125 167.703125 152.09375 169.703125 C 153.542969 177.488281 157.546875 183.523438 163.996094 187.648438 C 169.59375 191.175781 176.304688 193.277344 183.972656 193.898438 L 183.972656 198.351562 C 183.972656 200.746094 184.992188 202.101562 185.882812 202.859375 C 187.011719 203.785156 188.339844 204.273438 189.722656 204.273438 C 191.078125 204.273438 192.378906 203.820312 193.570312 202.9375 C 194.957031 201.921875 195.726562 200.292969 195.726562 198.351562 L 195.726562 193.75 C 203.085938 192.78125 208.683594 190.214844 212.394531 186.113281 C 216.488281 181.589844 218.757812 176.597656 219.125 171.328125 C 219.382812 168.515625 219.226562 165.613281 218.640625 162.527344 C 218.117188 159.386719 216.925781 156.347656 215.050781 153.417969 " fill-opacity="1" fill-rule="nonzero"/><path fill="#074e50" d="M 187.503906 217.359375 C 147.296875 217.359375 114.589844 184.621094 114.589844 144.367188 C 114.589844 104.113281 147.296875 71.363281 187.503906 71.363281 C 227.710938 71.363281 260.417969 104.113281 260.417969 144.367188 C 260.417969 184.621094 227.710938 217.359375 187.503906 217.359375 Z M 187.503906 59.789062 C 140.921875 59.789062 103.03125 97.730469 103.03125 144.367188 C 103.03125 190.996094 140.921875 228.929688 187.503906 228.929688 C 234.082031 228.929688 271.976562 190.996094 271.976562 144.367188 C 271.976562 97.730469 234.082031 59.789062 187.503906 59.789062 " fill-opacity="1" fill-rule="nonzero"/><g fill="#000000" fill-opacity="1"><g transform="translate(50.340721, 331.718445)"><g><path d="M 5.921875 -39.5 L 11.5625 -39.5 L 11.5625 0 L 5.921875 0 Z M 5.921875 -39.5 "/></g></g></g><g fill="#000000" fill-opacity="1"><g transform="translate(80.80738, 331.718445)"><g><path d="M 39.890625 -39.5 L 39.890625 0 L 35.265625 0 L 11.5625 -29.453125 L 11.5625 0 L 5.921875 0 L 5.921875 -39.5 L 10.546875 -39.5 L 34.25 -10.046875 L 34.25 -39.5 Z M 39.890625 -39.5 "/></g></g></g><g fill="#000000" fill-opacity="1"><g transform="translate(139.593862, 331.718445)"><g><path d="M 40.234375 -39.5 L 22.90625 0 L 17.328125 0 L -0.0625 -39.5 L 6.03125 -39.5 L 20.25 -7.046875 L 34.59375 -39.5 Z M 40.234375 -39.5 "/></g></g></g><g fill="#000000" fill-opacity="1"><g transform="translate(192.738951, 331.718445)"><g><path d="M 34.59375 -4.90625 L 34.59375 0 L 5.921875 0 L 5.921875 -39.5 L 33.796875 -39.5 L 33.796875 -34.59375 L 11.5625 -34.59375 L 11.5625 -22.453125 L 31.375 -22.453125 L 31.375 -17.65625 L 11.5625 -17.65625 L 11.5625 -4.90625 Z M 34.59375 -4.90625 "/></g></g></g><g fill="#000000" fill-opacity="1"><g transform="translate(243.514643, 331.718445)"><g><path d="M 17.4375 0.453125 C 14.46875 0.453125 11.597656 -0.00390625 8.828125 -0.921875 C 6.066406 -1.847656 3.894531 -3.046875 2.3125 -4.515625 L 4.40625 -8.921875 C 5.90625 -7.566406 7.828125 -6.460938 10.171875 -5.609375 C 12.523438 -4.765625 14.945312 -4.34375 17.4375 -4.34375 C 20.707031 -4.34375 23.148438 -4.894531 24.765625 -6 C 26.378906 -7.113281 27.1875 -8.59375 27.1875 -10.4375 C 27.1875 -11.789062 26.742188 -12.890625 25.859375 -13.734375 C 24.984375 -14.585938 23.894531 -15.238281 22.59375 -15.6875 C 21.300781 -16.132812 19.46875 -16.640625 17.09375 -17.203125 C 14.125 -17.921875 11.726562 -18.632812 9.90625 -19.34375 C 8.082031 -20.0625 6.519531 -21.160156 5.21875 -22.640625 C 3.914062 -24.128906 3.265625 -26.132812 3.265625 -28.65625 C 3.265625 -30.769531 3.816406 -32.671875 4.921875 -34.359375 C 6.035156 -36.054688 7.722656 -37.410156 9.984375 -38.421875 C 12.242188 -39.441406 15.046875 -39.953125 18.390625 -39.953125 C 20.722656 -39.953125 23.015625 -39.648438 25.265625 -39.046875 C 27.523438 -38.441406 29.46875 -37.578125 31.09375 -36.453125 L 29.21875 -31.9375 C 27.570312 -32.988281 25.804688 -33.785156 23.921875 -34.328125 C 22.046875 -34.878906 20.203125 -35.15625 18.390625 -35.15625 C 15.191406 -35.15625 12.789062 -34.570312 11.1875 -33.40625 C 9.59375 -32.238281 8.796875 -30.734375 8.796875 -28.890625 C 8.796875 -27.535156 9.25 -26.429688 10.15625 -25.578125 C 11.0625 -24.734375 12.179688 -24.078125 13.515625 -23.609375 C 14.847656 -23.140625 16.660156 -22.644531 18.953125 -22.125 C 21.929688 -21.40625 24.320312 -20.6875 26.125 -19.96875 C 27.925781 -19.257812 29.472656 -18.171875 30.765625 -16.703125 C 32.066406 -15.234375 32.71875 -13.257812 32.71875 -10.78125 C 32.71875 -8.707031 32.15625 -6.8125 31.03125 -5.09375 C 29.90625 -3.382812 28.191406 -2.03125 25.890625 -1.03125 C 23.597656 -0.0390625 20.78125 0.453125 17.4375 0.453125 Z M 17.4375 0.453125 "/></g></g></g><g fill="#000000" fill-opacity="1"><g transform="translate(291.526061, 331.718445)"><g><path d="M 13.765625 -34.59375 L 0.21875 -34.59375 L 0.21875 -39.5 L 32.890625 -39.5 L 32.890625 -34.59375 L 19.359375 -34.59375 L 19.359375 0 L 13.765625 0 Z M 13.765625 -34.59375 "/></g></g></g></svg>